<?xml version="1.0" encoding="utf-8"?>
<!-- Generator: Adobe Illustrator 23.0.6, SVG Export Plug-In . SVG Version: 6.00 Build 0)  -->
<svg version="1.1" id="Layer_1" xmlns="http://www.w3.org/2000/svg" xmlns:xlink="http://www.w3.org/1999/xlink" x="0px" y="0px"
	 viewBox="0 0 252 263" style="enable-background:new 0 0 252 263;" xml:space="preserve">
<style type="text/css">
	.st0{enable-background:new    ;}
	.st1{fill:none;stroke:#000000;stroke-width:3;}
	.st2{fill-rule:evenodd;clip-rule:evenodd;}
</style>
<title>Group 4</title>
<desc>Created with Sketch.</desc>
<g id="Desktop">
	<g id="Desktop-HD" transform="translate(-1080.000000, -111.000000)">
		<g id="Group-4" transform="translate(1082.000000, 113.000000)">
			<g class="st0">
				<path d="M21.6,140.2v-10l-5.9,10h-3.8l-5.7-10v10H2.4v-14.8h4.8l6.6,11.4l6.7-11.4h4.8v14.8H21.6z"/>
				<path d="M30.1,140.2v-14.8h4v14.8H30.1z"/>
				<path d="M38.9,140.2v-14.8h3.9V137h12v3.2H38.9z"/>
				<path d="M57.6,140.2v-14.8h3.9V137h12v3.2H57.6z"/>
				<path d="M76.7,140.2v-14.8h4v14.8H76.7z"/>
				<path d="M95,140.4c-7.3,0-10.1-1.6-10.7-5.2h4.3c0.2,1.6,2.4,2.1,6.7,2.1c4.6,0,5.7-0.6,5.7-1.6c0-1.4-3.1-1.5-6.6-1.7
					c-4.6-0.2-9.8-0.7-9.8-4.3c0-3.2,3.1-4.7,9.8-4.7c7.4,0,9.9,2.4,10.2,5l-4.4,0c-0.2-1.1-2-1.9-6-1.9c-4.8,0-5.6,0.4-5.6,1.4
					c0,1.2,3.5,1.2,7.3,1.5c5.9,0.4,9.3,1,9.3,4.5C105.1,138.7,101.9,140.4,95,140.4z"/>
				<path d="M108.8,140.2v-14.8h17.7v3.2h-13.8v2.6h13.5v3.1h-13.5v2.7h14v3.2H108.8z"/>
				<path d="M150.9,136.2c-1.3,2.6-4.5,4.2-10.3,4.2c-5.5,0-8.7-1.7-10.2-3.9c-0.7-1.1-1.1-2.4-1.1-3.8c0-1.3,0.3-2.6,1-3.6
					c1.6-2.4,4.7-4.2,10.3-4.2c5.9,0,8.8,2,10.4,4.4c0.4,0.6,0.6,1.6,0.6,2h-4.1c-0.1-0.3-0.3-0.7-0.6-1.1c-0.9-1-3-2-6.3-2
					c-3.4,0-5.9,1-6.8,2.7c-0.3,0.5-0.4,1-0.4,1.7c0,0.7,0.2,1.3,0.5,1.7c1.2,1.8,4,2.6,6.8,2.6c3.1,0,5.1-0.4,6.5-2
					c0.2-0.3,0.3-0.7,0.4-1h4.1C151.4,134.7,151.2,135.6,150.9,136.2z"/>
				<path d="M174,127.7c1.6,1.4,2.1,2.9,2.1,5c0,2.1-0.7,3.7-2.1,5c-1.9,1.9-5.1,2.8-9.3,2.8c-4,0-7-1-9-2.7
					c-1.5-1.2-2.3-2.9-2.3-5.1c0-1.9,0.6-3.4,2.1-4.8c2.3-2.1,5.1-2.9,9.3-2.9C168.9,125,171.9,125.8,174,127.7z M171.1,135.3
					c0.8-0.8,1-1.7,1-2.6c0-1-0.3-2-1.1-2.8c-1.4-1.2-3.2-1.8-6.3-1.8c-3,0-5.1,0.8-6.2,1.9c-0.8,0.8-1.1,1.6-1.1,2.7
					c0,1.2,0.3,2.1,1.4,2.9c1.5,1.1,3.2,1.7,6,1.7C167.8,137.3,169.7,136.7,171.1,135.3z"/>
				<path d="M194.9,140.2l-11.5-10.3v10.3h-3.8v-14.8h4.1l11.4,10.4v-10.4h3.7v14.8H194.9z"/>
				<path d="M215.1,140.2h-11.5v-14.8h11.5c4.4,0,6.9,1.4,8,3.6c0.5,1,0.7,2.2,0.7,3.6c0,1.4-0.2,2.7-0.7,3.8
					C222,138.7,219.5,140.2,215.1,140.2z M219.8,132.7c0-0.9-0.2-1.6-0.4-2.2c-0.7-1.4-2.3-2.1-4.9-2.1h-7v8.7h6.8
					c2.8,0,4.3-0.7,5-2C219.7,134.4,219.8,133.7,219.8,132.7z"/>
				<path d="M236.8,140.4c-7.3,0-10.1-1.6-10.7-5.2h4.3c0.2,1.6,2.4,2.1,6.7,2.1c4.6,0,5.7-0.6,5.7-1.6c0-1.4-3.1-1.5-6.6-1.7
					c-4.6-0.2-9.8-0.7-9.8-4.3c0-3.2,3.1-4.7,9.8-4.7c7.4,0,9.9,2.4,10.2,5l-4.4,0c-0.2-1.1-2-1.9-6-1.9c-4.8,0-5.6,0.4-5.6,1.4
					c0,1.2,3.5,1.2,7.3,1.5c5.9,0.4,9.3,1,9.3,4.5C246.9,138.7,243.7,140.4,236.8,140.4z"/>
			</g>
			<ellipse id="Oval" class="st1" cx="55" cy="58.5" rx="55" ry="52.5"/>
			<ellipse id="Oval-Copy" class="st1" cx="178.5" cy="209.5" rx="69.5" ry="49.5"/>
			<polygon id="Polygon" class="st1" points="190,0 248,38.4 225.8,100.7 154.1,100.7 132,38.4 			"/>
			<g id="np_starburst_1395663_000000" transform="translate(0.000000, 160.000000)">
				<path id="Shape" d="M88.4,44.8l6.8-2.5c0.6-0.2,0.9-0.8,0.8-1.4c-0.1-0.6-0.6-1-1.2-1h0l-7.3,0h0c-2.5,0-4-1.7-4.6-3.3
					c-0.6-1.6-0.5-3.9,1.5-5.6l5.5-4.7c0.5-0.4,0.6-1,0.3-1.6c-0.3-0.5-0.9-0.8-1.5-0.6l-6.9,2.6c-2.4,0.9-4.4-0.2-5.4-1.5
					c-1.1-1.3-1.7-3.5-0.4-5.8l3.7-6.4c0.3-0.5,0.2-1.2-0.3-1.6c-0.4-0.4-1.1-0.4-1.6,0l-5.7,4.9c-1.9,1.7-4.2,1.3-5.6,0.5
					c-1.4-0.9-2.8-2.7-2.3-5.3l1.3-7.4c0.1-0.6-0.2-1.2-0.8-1.4s-1.2,0-1.5,0.5l-3.7,6.6c-1.3,2.3-3.5,2.7-5.1,2.4
					c-1.6-0.3-3.5-1.5-4-4.1L49.2,1c-0.1-0.6-0.6-1-1.2-1c-0.6,0-1.1,0.4-1.2,1l-1.3,7.5c-0.4,2.6-2.3,3.8-4,4.1
					c-1.6,0.3-3.8-0.2-5.1-2.4l-3.7-6.6C32.5,3,31.9,2.8,31.3,3c-0.5,0.2-0.9,0.8-0.8,1.4l1.3,7.4c0.5,2.6-0.9,4.4-2.3,5.3
					c-1.4,0.9-3.7,1.2-5.6-0.5l-5.7-4.9c-0.5-0.4-1.1-0.4-1.6,0c-0.4,0.4-0.6,1.1-0.3,1.6l3.7,6.4c1.3,2.2,0.6,4.5-0.4,5.8
					c-1.1,1.3-3.1,2.4-5.4,1.5l-6.9-2.6c-0.5-0.2-1.2,0-1.5,0.6c-0.3,0.5-0.2,1.2,0.3,1.6l5.5,4.7c2,1.7,2.1,4,1.5,5.6
					c-0.6,1.6-2.1,3.3-4.6,3.3h0l-7.3,0h0c-0.6,0-1.1,0.4-1.2,1c-0.1,0.6,0.2,1.2,0.8,1.4l6.8,2.5c2.4,0.9,3.3,3,3.3,4.7
					s-0.9,3.9-3.3,4.7l-6.8,2.5c-0.6,0.2-0.9,0.8-0.8,1.4c0.1,0.6,0.6,1,1.2,1h0l7.3,0c2.5,0,4.1,1.7,4.6,3.3
					c0.6,1.6,0.5,3.9-1.5,5.6l-5.5,4.7c-0.5,0.4-0.6,1-0.3,1.6c0.3,0.5,0.9,0.8,1.5,0.6l6.9-2.6c2.4-0.9,4.4,0.2,5.4,1.5
					c1.1,1.3,1.7,3.5,0.4,5.8l-3.7,6.4c-0.3,0.5-0.2,1.2,0.3,1.6c0.4,0.4,1.1,0.4,1.6,0l5.7-4.9c1.9-1.7,4.2-1.3,5.6-0.5
					c1.4,0.9,2.8,2.7,2.3,5.3l-1.3,7.4c-0.1,0.6,0.2,1.2,0.8,1.4s1.2,0,1.5-0.5l3.7-6.6c1.3-2.2,3.5-2.7,5.1-2.4
					c1.6,0.3,3.5,1.5,4,4.1l1.3,7.5c0.1,0.6,0.6,1,1.2,1c0.6,0,1.1-0.4,1.2-1l1.3-7.5c0.4-2.6,2.3-3.8,4-4.1
					c1.6-0.3,3.8,0.2,5.1,2.4l3.7,6.6c0.3,0.5,0.9,0.7,1.5,0.5c0.5-0.2,0.9-0.8,0.8-1.4l-1.3-7.4c-0.5-2.6,0.9-4.4,2.3-5.3
					c1.4-0.9,3.7-1.2,5.6,0.5l5.7,4.9c0.5,0.4,1.1,0.4,1.6,0c0.4-0.4,0.6-1.1,0.3-1.6l-3.7-6.4c-1.3-2.2-0.6-4.5,0.4-5.8
					c1.1-1.3,3.1-2.4,5.4-1.5l6.9,2.6c0.5,0.2,1.2,0,1.5-0.6c0.3-0.5,0.2-1.2-0.3-1.6L84.4,68c-2-1.7-2.1-4-1.5-5.6
					c0.6-1.6,2.1-3.3,4.6-3.3h0l7.3,0h0c0.6,0,1.1-0.4,1.2-1c0.1-0.6-0.2-1.2-0.8-1.4l-6.8-2.5c-2.4-0.9-3.3-3-3.3-4.7
					C85.1,47.8,86,45.6,88.4,44.8L88.4,44.8z M87.6,56.6L87.6,56.6L87.6,56.6l-0.1,0c-3.1,0-5.8,1.9-6.9,5c-1.1,3-0.2,6.3,2.2,8.3
					l0.1,0.1l-0.3-0.1c-2.9-1.1-6.1-0.2-8.1,2.3c-2,2.5-2.3,5.9-0.7,8.6l0.1,0.2l-0.3-0.3c-2.4-2.1-5.7-2.3-8.4-0.7
					s-4.1,4.7-3.5,7.8l0.1,0.3l-0.2-0.4C60,84.9,57,83.4,54,84c-3.1,0.6-5.4,3-5.9,6.1L48,90.5l-0.1-0.4c-0.5-3.2-2.8-5.5-5.9-6.1
					c-0.4-0.1-0.9-0.1-1.3-0.1c-2.6,0-4.9,1.4-6.3,3.8L34.2,88l0.1-0.3c0.6-3.2-0.8-6.2-3.5-7.8c-2.7-1.6-6-1.3-8.4,0.7l-0.3,0.3
					l0.1-0.2c1.6-2.8,1.3-6.1-0.7-8.6c-2-2.5-5.2-3.3-8.1-2.3L13.1,70l0.1-0.1c2.4-2,3.3-5.3,2.2-8.3c-1.1-3-3.8-5-6.9-5H8.3l0.1,0
					c3-1.1,4.9-3.9,4.9-7.1c0-3.2-1.9-6-4.9-7.1l-0.1,0h0.2h0c3.1,0,5.8-1.9,6.9-5c1.1-3,0.2-6.3-2.2-8.3L13.1,29l0.3,0.1
					c2.9,1.1,6.1,0.2,8.1-2.3c2-2.5,2.3-5.9,0.7-8.6l-0.1-0.2l0.3,0.3c2.4,2.1,5.7,2.3,8.4,0.7c2.7-1.6,4.1-4.7,3.5-7.8L34.2,11
					l0.2,0.4C36,14.1,39,15.6,42,15c3.1-0.6,5.4-3,5.9-6.1L48,8.5l0.1,0.4c0.5,3.1,2.8,5.5,5.9,6.1c3.1,0.6,6-0.9,7.6-3.6l0.2-0.4
					l-0.1,0.3c-0.6,3.2,0.8,6.2,3.5,7.8c2.7,1.6,6,1.3,8.4-0.7l0.3-0.3l-0.1,0.2c-1.6,2.8-1.3,6.1,0.7,8.6c2,2.5,5.2,3.4,8.1,2.3
					l0.3-0.1l-0.1,0.1c-2.4,2-3.3,5.3-2.2,8.3c1.1,3,3.8,4.9,6.9,5h0.2l-0.1,0c-3,1.1-4.9,3.9-4.9,7.1
					C82.7,52.7,84.6,55.5,87.6,56.6L87.6,56.6z"/>
			</g>
			<g id="Group-3" transform="translate(42.000000, 23.000000)">
				<path id="Fill-1" class="st2" d="M13.3,64.6c-2.6,0.1-5,0.3-7.4,0.4c-3.4,0.2-4.2-0.8-2.8-4c1.5-3.3,3.2-6.5,4.9-9.6
					c2.3-4.4,4.8-8.7,6.4-13.5c0.9-2.7,1.4-5.4,0.8-8.2c-1-4.8-4.5-8.1-9.7-9.1c-1.2-0.2-2.3-0.3-3.5-0.4c-0.8-0.1-1.6-0.1-1.9-1.1
					c-0.3-0.9,0.2-1.5,0.8-2.1c0.7-0.6,1.4-1.1,2.1-1.7c4.9-3.8,9-8.3,12.3-13.5c0.2-0.4,0.5-0.8,0.8-1.1c0.5-0.6,1.2-1,1.9-0.6
					c0.5,0.3,1.1,1,1.1,1.5c0.1,1.5,0.1,3.1-0.1,4.6c-0.6,4.6-1.4,9.2-2.1,13.8c-1.7,11.1-0.1,21.9,3.7,32.4
					c0.9,2.6,1.9,5.2,2.9,7.8c0.2,0.6,0.4,1.3,0.6,1.9c0.4,1.6-0.2,2.7-1.9,2.8c-1.6,0.1-3.1,0-4.7-0.1
					C16.2,64.7,14.7,64.6,13.3,64.6"/>
			</g>
			<g transform="translate(169.000000, 27.000000)">
				<path class="st2" d="M19.1,57c-4.1,0-8-0.7-11.6-2.5C0.8,51.2-1.8,44.2,1.3,38c1-2,2.4-3.5,4.6-4.4c4.8-2,9.6-2.2,14.5-0.1
					c1.4,0.6,2.6,1.5,3.5,2.7c1.4,2.1,0.7,5-1.7,6.1c-1.4,0.7-2.4,0.6-3.3-0.6c-0.8-1-1.5-2.1-2.3-3.2c-0.9-1.1-1.8-2.3-2.9-3.3
					c-1.6-1.4-3.6-2-5.9-1.7c-1.3,0.2-2.2,0.9-2.5,2.1c-0.4,1.5-0.1,2.9,0.9,4.2c1.1,1.3,2.6,2.3,4.2,3.1c3.9,1.9,8.2,2.9,12.6,3.4
					c2.8,0.3,5.6,0.4,8.4,0.5c2.3,0.1,3.4-1,3.4-3c0-3.7-1.6-6.6-4.5-9.1c-3.4-2.9-7.5-4.6-11.8-6c-2.1-0.7-4.3-1.2-6.5-1.8
					c-0.7-0.2-1.4-0.3-1.3-1.1c0-0.8,0.8-1,1.5-1.1c3.2-0.6,6.4-1.1,9.5-1.9c1.5-0.3,2.9-1,4.3-1.7c1.5-0.7,2.2-2,2.2-3.5
					c0.1-4.1-0.5-8.2-2.3-12c-0.5-1.1-1.2-2.2-2.1-3.1c-2-2.1-4.8-2.2-6.9-0.3c-1,0.9-1.8,2.2-2.4,3.4c-1,2.2-1.1,4.6-0.7,7
					c0.3,1.9,1.3,3.5,2.8,4.8c0.4,0.3,0.8,1,0.7,1.2c-0.3,0.4-1,0.7-1.5,0.8c-2.9,0.2-5.7-0.2-8.3-1.2c-4.2-1.6-5.9-5-4.7-9.1
					c0.9-3,3.1-5.2,6.1-6.7c4.2-2.1,8.7-2.6,13.4-2.4c3.2,0.2,6.4,0.7,9.3,2c5.1,2.2,7.7,6.3,7.1,11c-0.3,2.1-1.5,3.7-3.4,4.8
					c-2.3,1.3-4.7,2.3-7.1,3.4c-0.6,0.3-1.3,0.5-1.9,0.7c-0.8,0.3-1.5,0.7-1.3,1.6c0.2,0.8,1,1.1,1.8,1.1c1.6,0.2,3.3,0.1,4.9,0.4
					c1.8,0.3,3.7,0.6,5.5,1.2c4.1,1.4,5.8,4.7,4.4,8.4c-0.6,1.6-1.5,3.2-2.4,4.7c-1.7,2.8-3.3,5.6-4.3,8.7c-0.3,0.8-0.7,1.6-1.1,2.4
					c-2.1,3.8-5.6,5.7-10.1,6.2C22.1,56.8,20.6,56.9,19.1,57"/>
			</g>
			<g class="st0">
				<path d="M41.7,200.2v4.2h19.2v5H41.7v8.6h-6v-22.7h26v4.9H41.7z"/>
			</g>
			<g class="st0">
				<path d="M189.9,218v-15.3L181,218h-5.9l-8.6-15.3V218h-5.8v-22.7h7.4l10.1,17.3l10.2-17.3h7.3V218H189.9z"/>
			</g>
		</g>
	</g>
</g>
</svg>
