<?xml version="1.0" encoding="utf-8"?>
<!-- Generator: Adobe Illustrator 23.0.6, SVG Export Plug-In . SVG Version: 6.00 Build 0)  -->
<svg version="1.1" id="Layer_1" xmlns="http://www.w3.org/2000/svg" xmlns:xlink="http://www.w3.org/1999/xlink" x="0px" y="0px"
	 viewBox="0 0 199 80" style="enable-background:new 0 0 199 80;" xml:space="preserve">
<style type="text/css">
	.st0{fill-rule:evenodd;clip-rule:evenodd;fill:#37F0D9;}
	.st1{enable-background:new    ;}
	.st2{fill:#FB48C4;}
</style>
<g id="Desktop">
	<g id="Desktop-HD" transform="translate(-303.000000, -754.000000)">
		
			<g id="Group-2" transform="translate(402.114680, 793.900031) rotate(10.000000) translate(-402.114680, -793.900031) translate(305.614680, 770.400031)">
			
				<rect id="Rectangle-3" x="73" y="-73" transform="matrix(2.312384e-06 1 -1 2.312384e-06 119.9998 -73)" class="st0" width="47" height="193"/>
			<g id="Group" transform="translate(21.000000, 5.000000)">
				<g class="st1">
					<path class="st2" d="M28.7,22c-1.7,3.3-5.7,5.3-13.1,5.3c-6.9,0-11-2.1-12.9-4.9c-0.9-1.3-1.4-3-1.4-4.8c0-1.7,0.4-3.3,1.2-4.5
						c2.1-3,6-5.3,13-5.3c7.4,0,11.1,2.6,13.1,5.5c0.6,0.8,0.7,2,0.8,2.5l-5.2,0c-0.1-0.4-0.4-0.9-0.7-1.3c-1.1-1.3-3.8-2.5-7.9-2.5
						c-4.3,0-7.4,1.3-8.6,3.4c-0.3,0.6-0.5,1.3-0.5,2.1c0,0.9,0.2,1.6,0.6,2.2c1.5,2.3,5.1,3.3,8.5,3.3c3.9,0,6.5-0.5,8.2-2.5
						c0.3-0.4,0.4-0.9,0.5-1.2l5.2,0C29.4,20,29.1,21.3,28.7,22z"/>
				</g>
				<g class="st1">
					<path class="st2" d="M130,27l0-18.7l4.9,0l0,14.7l15.1,0l0,4L130,27z"/>
				</g>
				<g id="np_sun_2154738_000000" transform="translate(38.000000, 0.000000)">
					<path id="Shape" class="st2" d="M17.5,0c-0.2,0-0.4,0.2-0.4,0.4l0,6.2c0,0.2,0.2,0.4,0.4,0.4s0.4-0.2,0.4-0.4l0-6.2
						C17.9,0.2,17.7,0,17.5,0z M5.4,5c-0.1,0-0.2,0-0.3,0.1C5,5.3,5,5.5,5.1,5.7l4.4,4.4c0.2,0.2,0.4,0.2,0.5,0
						c0.2-0.2,0.2-0.4,0-0.5L5.7,5.1C5.6,5.1,5.5,5,5.4,5L5.4,5z M29.6,5c-0.1,0-0.2,0-0.3,0.1l-4.4,4.4c-0.2,0.2-0.2,0.4,0,0.5
						c0.2,0.2,0.4,0.2,0.5,0l4.4-4.4c0.2-0.2,0.2-0.4,0-0.5C29.8,5.1,29.7,5,29.6,5L29.6,5z M17.5,11.3c-3.7,0-6.6,3-6.6,6.6
						s3,6.6,6.6,6.6c3.7,0,6.6-3,6.6-6.6C24.1,14.2,21.2,11.3,17.5,11.3z M0.4,17.1c-0.2,0-0.4,0.2-0.4,0.4c0,0.2,0.2,0.4,0.4,0.4
						l6.2,0c0.2,0,0.4-0.2,0.4-0.4s-0.2-0.4-0.4-0.4L0.4,17.1z M28.4,17.1c-0.2,0-0.4,0.2-0.4,0.4s0.2,0.4,0.4,0.4l6.2,0
						c0.2,0,0.4-0.2,0.4-0.4s-0.2-0.4-0.4-0.4H28.4z M9.8,24.8c-0.1,0-0.2,0-0.3,0.1l-4.4,4.4c-0.2,0.2-0.2,0.4,0,0.5
						c0.2,0.2,0.4,0.2,0.5,0l4.4-4.4c0.2-0.2,0.2-0.4,0-0.5C10,24.8,9.9,24.8,9.8,24.8L9.8,24.8z M25.2,24.8c-0.1,0-0.2,0-0.3,0.1
						c-0.2,0.2-0.2,0.4,0,0.5l4.4,4.4c0.2,0.2,0.4,0.2,0.5,0c0.2-0.2,0.2-0.4,0-0.5l-4.4-4.4C25.4,24.8,25.3,24.8,25.2,24.8
						L25.2,24.8z M17.5,28c-0.2,0-0.4,0.2-0.4,0.4v6.2c0,0.2,0.2,0.4,0.4,0.4c0.2,0,0.4-0.2,0.4-0.4v-6.2C17.9,28.2,17.7,28,17.5,28
						z"/>
				</g>
				<g id="np_sun_2154738_000000-copy" transform="translate(80.000000, 0.000000)">
					<path class="st2" d="M17.5,0c-0.2,0-0.4,0.2-0.4,0.4l0,6.2c0,0.2,0.2,0.4,0.4,0.4s0.4-0.2,0.4-0.4V0.4C17.9,0.2,17.7,0,17.5,0z
						 M5.4,5c-0.1,0-0.2,0-0.3,0.1C5,5.3,5,5.5,5.1,5.7l4.4,4.4c0.2,0.2,0.4,0.2,0.5,0c0.2-0.2,0.2-0.4,0-0.5L5.7,5.1
						C5.6,5.1,5.5,5,5.4,5L5.4,5z M29.6,5c-0.1,0-0.2,0-0.3,0.1l-4.4,4.4c-0.2,0.2-0.2,0.4,0,0.5c0.2,0.2,0.4,0.2,0.5,0l4.4-4.4
						c0.2-0.2,0.2-0.4,0-0.5C29.8,5.1,29.7,5,29.6,5L29.6,5z M17.5,11.3c-3.7,0-6.6,3-6.6,6.6c0,3.7,3,6.6,6.6,6.6
						c3.7,0,6.6-3,6.6-6.6C24.1,14.2,21.2,11.3,17.5,11.3z M0.4,17.1c-0.2,0-0.4,0.2-0.4,0.4c0,0.2,0.2,0.4,0.4,0.4l6.2,0
						c0.2,0,0.4-0.2,0.4-0.4s-0.2-0.4-0.4-0.4L0.4,17.1z M28.4,17.1c-0.2,0-0.4,0.2-0.4,0.4s0.2,0.4,0.4,0.4l6.2,0
						c0.2,0,0.4-0.2,0.4-0.4s-0.2-0.4-0.4-0.4L28.4,17.1z M9.8,24.8c-0.1,0-0.2,0-0.3,0.1l-4.4,4.4c-0.2,0.2-0.2,0.4,0,0.5
						c0.2,0.2,0.4,0.2,0.5,0l4.4-4.4c0.2-0.2,0.2-0.4,0-0.5C10,24.8,9.9,24.8,9.8,24.8L9.8,24.8z M25.2,24.8c-0.1,0-0.2,0-0.3,0.1
						c-0.2,0.2-0.2,0.4,0,0.5l4.4,4.4c0.2,0.2,0.4,0.2,0.5,0c0.2-0.2,0.2-0.4,0-0.5l-4.4-4.4C25.4,24.8,25.3,24.8,25.2,24.8
						L25.2,24.8z M17.5,28c-0.2,0-0.4,0.2-0.4,0.4v6.2c0,0.2,0.2,0.4,0.4,0.4c0.2,0,0.4-0.2,0.4-0.4l0-6.2
						C17.9,28.2,17.7,28,17.5,28z"/>
				</g>
			</g>
		</g>
	</g>
</g>
</svg>
