<svg xmlns="http://www.w3.org/2000/svg" viewBox="0 0 160.9 16.12"><g id="Layer_2" data-name="Layer 2"><g id="Layer_1-2" data-name="Layer 1"><path d="M11.26,16.12C3.62,16.12.62,14.42,0,10.62H4.54c.22,1.68,2.5,2.24,7.08,2.24,4.88,0,6-.64,6-1.68,0-1.46-3.28-1.56-7-1.74C5.8,9.18.28,8.74.28,4.92.28,1.58,3.54,0,10.6,0,18.36,0,21,2.52,21.38,5.28l-4.58,0c-.18-1.12-2.1-2-6.36-2-5.1,0-5.92.42-5.92,1.46C4.52,6,8.2,6,12.16,6.28c6.16.4,9.76,1,9.76,4.74C21.92,14.38,18.6,16.12,11.26,16.12Z" style="fill:#ffffff"/><path d="M25.86,15.88V.26h4.22V15.88Z" style="fill:#ffffff"/><path d="M52.36,15.88l-.08-2.06c-1.08.88-3.38,2.3-8,2.3-3.66,0-7.18-.94-9.1-3.24a7.37,7.37,0,0,1-1.58-4.8,6.88,6.88,0,0,1,1.62-4.6C37.06,1.32,40.38,0,45.24,0c5.46,0,8.68,1.58,10.2,4.36a5.39,5.39,0,0,1,.5,1.44h-4a2.88,2.88,0,0,0-.74-1C50.36,4,48.42,3.2,45.34,3.2c-3.36,0-5.48.74-6.6,2a4.11,4.11,0,0,0-1,2.8,4.26,4.26,0,0,0,1,2.78c1.18,1.3,3.38,2,6.36,2a11.4,11.4,0,0,0,5.3-1.26A5.48,5.48,0,0,0,52.14,9.9H44.06V6.7h12v9.18Z" style="fill:#ffffff"/><path d="M76.56,15.88,64.5,5V15.88h-4V.26h4.32l12,10.92V.26H80.7V15.88Z" style="fill:#ffffff"/><path d="M105.06,16.1c-6.5,0-10.36-2.62-10.36-7.6V.26h4.16V8.92c0,2.3,2,4,6.44,4,4.06,0,6.24-1.48,6.24-4V.26h4.1V9C115.64,13.58,112.22,16.1,105.06,16.1Z" style="fill:#ffffff"/><path d="M139.82,9.72c-1.16,1.5-3.1,2.16-5.94,2.16h-9.24v4h-4.1V.26h13.32c2.6,0,4.64.6,5.68,1.72a5.88,5.88,0,0,1,1.36,4.1A5.8,5.8,0,0,1,139.82,9.72ZM136.4,4.54c-.48-.66-1.56-1.06-3.4-1.06h-8.38v5H133c1.92,0,3-.34,3.44-1.06A2.57,2.57,0,0,0,136.74,6,2.67,2.67,0,0,0,136.4,4.54Z" style="fill:#ffffff"/></g></g></svg>